<svg width="344" height="506" xmlns="http://www.w3.org/2000/svg" version="1.0">
  <g>
    <path id="svg_1" stroke="#bae1eb" fill="#bae1eb" stroke-width="1.8" d="M8,72.2C8,142.2 8.1,144.4 9.8,141.5C10.8,139.8 14,134.4 17,129.5C29.9,107.7 45.6,87.4 64.4,68.1C90.1,41.9 115,23.3 146.5,6.8L159.5,0L89.5,0L80.5,16C75.6,24.8 71.2,32 70.9,32C70.6,32 66.1,24.8 61.1,16L51.8,0L8,0L8,72.2zM68.9,35.2C65.9,40.8 46.8,73.6 46.1,74.3C45.5,74.9 30.3,50.1 21.3,33.7C21.1,33.3 31.9,33 45.5,33L70.1,33L68.9,35.2zM329,353.8C292.5,408.9 244,455.5 192.5,484.9L183.6,490L298.8,490L310.7,469.5C317.2,458.3 322.8,449.4 323.2,449.8C323.6,450.2 326.6,455.2 329.9,461L336,471.5L336,407.7C336,372.7 335.9,344 335.8,344C335.6,344 332.6,348.4 329,353.8zM310.1,427.3L321.7,447.5L309.9,447.8C303.4,447.9 292.5,447.9 285.7,447.8L273.2,447.5L285.2,426.7C291.8,415.3 297.5,406.2 297.8,406.5C298.1,406.8 303.6,416.2 310.1,427.3z"></path>
    <path id="svg_2" stroke="#a6d8e5" fill="#a6d8e5" stroke-width="1.8" d="M21.3,33.7C30.3,50.1 45.5,74.9 46.1,74.3C46.8,73.6 65.9,40.8 68.9,35.2L70.1,33L45.5,33C31.9,33 21.1,33.3 21.3,33.7zM285.2,426.7L273.2,447.5L285.7,447.8C292.5,447.9 303.4,447.9 309.9,447.8L321.7,447.5L310.1,427.3C303.6,416.2 298.1,406.8 297.8,406.5C297.5,406.2 291.8,415.3 285.2,426.7z"></path>
    <path id="svg_3" fill="#97d2e1" stroke="#97d2e1" stroke-width="1.8" d="M 53.61545 1.4 C 53.91545 2.2 58.01545 9.5 62.71545 17.5 L 71.11545 32.1 L 75.41545 24.8 C 77.71545 20.8 81.81545 13.7 84.41545 9.2 C 87.11545 4.6 89.31545 0.6 89.31545 0.4 C 89.31545 0.2 81.21545 0 71.21545 0 C 55.81545 0 53.21545 0.2 53.61545 1.4 z M 299.41545 490 L 315.41545 490 C 331.01545 490 331.41545 489.9 333.81545 487.5 C 335.91545 485.4 336.31545 484.2 336.31545 478.6 C 336.31545 472.6 335.91545 471.6 330.21545 461.6 L 322.4166118764363 449.15174 L 299.41545 490 z"></path>
    <path id="svg_4" fill="#b4dee9" stroke="#b4dee9" stroke-width="1.8" d="M 8.130570194114478 0.9832998716374157 L 8.104587822017113 8.67200708932999 L 20.47413 31.822829936342238 L 38.89884 1.109499871637416 L 8.130570194114478 0.9832998716374157 z M 248.99884 489.63485993634225 L 291.26368 489.5941199363422 L 272 450.23936993634226 L 248.99884 489.63485993634225 z"></path>
  </g>
</svg>
